name rise49.5252peak65.1548fall88.8305.mot
datacolumns 19
datarows 35
range 13.77995400000000 13.83661400000000
endheader
time	ground_force1_vx	ground_force1_vy	ground_force1_vz	ground_force1_px	ground_force1_py	ground_force1_pz	ground_force2_vx	ground_force2_vy	ground_force2_vz	ground_force2_px	ground_force2_py	ground_force2_pz	ground_torque1_x	ground_torque1_y	ground_torque1_z	ground_torque2_x	ground_torque2_y	ground_torque2_z	
13.77995400000000	-49.14135900000000	803.86914000000002	56.97288200000000	0.17362600000000	0.00000000000000	0.08424200000000	-2.57465100000000	7.03971100000000	2.09346200000000	0.00000000000000	0.00000000000000	0.00000000000000	0.00000000000000	27.34955700000000	0.00000000000000	0.00000000000000	0.75031200000000	0.00000000000000	
13.78160800000000	-49.28290900000000	802.37990500000001	57.00870700000000	0.17288300000000	0.00000000000000	0.08425800000000	-3.71583700000000	11.20578100000000	3.11657100000000	0.00000000000000	0.00000000000000	0.00000000000000	0.00000000000000	27.25359400000000	0.00000000000000	0.00000000000000	1.12707700000000	0.00000000000000	
13.78327900000000	-49.43054200000000	800.77728999999999	57.02585800000000	0.17213400000000	0.00000000000000	0.08427200000000	-4.96754500000000	16.06011300000000	4.26362200000000	0.00000000000000	0.00000000000000	0.00000000000000	0.00000000000000	27.15310800000000	0.00000000000000	0.00000000000000	1.55206000000000	0.00000000000000	
13.78494600000000	-49.58484800000000	799.05943200000002	57.02353700000000	0.17138200000000	0.00000000000000	0.08428400000000	-6.28956600000000	21.53026400000000	5.50472800000000	0.00000000000000	0.00000000000000	0.00000000000000	0.00000000000000	27.04813600000000	0.00000000000000	0.00000000000000	2.01495400000000	0.00000000000000	
13.78661000000000	-49.74638100000000	797.22447000000000	57.00096700000000	0.17062700000000	0.00000000000000	0.08429500000000	-7.63555200000000	27.51749800000000	6.80401000000000	0.37834500000000	0.00000000000000	-0.08533200000000	0.00000000000000	26.93872300000000	0.00000000000000	0.00000000000000	4.42592700000000	0.00000000000000	
13.78827600000000	-49.91566000000000	795.27054699999997	56.95739200000000	0.16987000000000	0.00000000000000	0.08430300000000	-8.95638400000000	33.90510600000000	8.12224900000000	0.37923300000000	0.00000000000000	-0.08647900000000	0.00000000000000	26.82491400000000	0.00000000000000	0.00000000000000	5.30871100000000	0.00000000000000	
13.78993900000000	-50.09316400000000	793.19580800000006	56.89208400000000	0.16911300000000	0.00000000000000	0.08430900000000	-10.20386800000000	40.56845700000000	9.41989700000000	0.38022100000000	0.00000000000000	-0.08750900000000	0.00000000000000	26.70676100000000	0.00000000000000	0.00000000000000	6.18904200000000	0.00000000000000	
13.79160600000000	-50.27933100000000	790.99840600000005	56.80434300000000	0.16835700000000	0.00000000000000	0.08431200000000	-11.33423900000000	47.38533800000000	10.65999900000000	0.38130200000000	0.00000000000000	-0.08844000000000	0.00000000000000	26.58431800000000	0.00000000000000	0.00000000000000	7.04421000000000	0.00000000000000	
13.79327700000000	-50.47455400000000	788.67649800000004	56.69349900000000	0.16760300000000	0.00000000000000	0.08431200000000	-12.31103200000000	54.24521300000000	11.81067900000000	0.38246900000000	0.00000000000000	-0.08928700000000	0.00000000000000	26.45764200000000	0.00000000000000	0.00000000000000	7.85438600000000	0.00000000000000	
13.79495100000000	-50.67918000000000	786.22825599999999	56.55892000000000	0.16685300000000	0.00000000000000	0.08430900000000	-13.10704100000000	61.05640900000000	12.84691800000000	0.38371700000000	0.00000000000000	-0.09006200000000	0.00000000000000	26.32679400000000	0.00000000000000	0.00000000000000	8.60374200000000	0.00000000000000	
13.79660600000000	-50.89350500000000	783.65185799999995	56.40001000000000	0.16610700000000	0.00000000000000	0.08430300000000	-13.70525200000000	67.75072700000000	13.75152600000000	0.38503900000000	0.00000000000000	-0.09077500000000	0.00000000000000	26.19183500000000	0.00000000000000	0.00000000000000	9.28110200000000	0.00000000000000	
13.79827200000000	-51.11777400000000	780.94550100000004	56.21621300000000	0.16536800000000	0.00000000000000	0.08429400000000	-14.09881300000000	74.28540599999999	14.51532700000000	0.38642900000000	0.00000000000000	-0.09143400000000	0.00000000000000	26.05282800000000	0.00000000000000	0.00000000000000	9.88011000000000	0.00000000000000	
13.79995300000000	-51.35217900000000	778.10739500000000	56.00701500000000	0.16463600000000	0.00000000000000	0.08428000000000	-14.29017100000000	80.64266900000000	15.13665800000000	0.38788200000000	0.00000000000000	-0.09204500000000	0.00000000000000	25.90983800000000	0.00000000000000	0.00000000000000	10.39897700000000	0.00000000000000	
13.80160900000000	-51.59685400000000	775.13577299999997	55.77195100000000	0.16391300000000	0.00000000000000	0.08426300000000	-14.28960000000000	86.82728899999999	15.62033500000000	0.38939400000000	0.00000000000000	-0.09261400000000	0.00000000000000	25.76292800000000	0.00000000000000	0.00000000000000	10.83990600000000	0.00000000000000	
13.80327500000000	-51.85187400000000	772.02888900000005	55.51060000000000	0.16320000000000	0.00000000000000	0.08424200000000	-14.11333500000000	92.86271600000001	15.97627100000000	0.39095700000000	0.00000000000000	-0.09314700000000	0.00000000000000	25.61216100000000	0.00000000000000	0.00000000000000	11.20828300000000	0.00000000000000	
13.80495200000000	-52.11725300000000	768.78502500000002	55.22259300000000	0.16249900000000	0.00000000000000	0.08421600000000	-13.78154500000000	98.78635000000000	16.21790800000000	0.39256800000000	0.00000000000000	-0.09364600000000	0.00000000000000	25.45760000000000	0.00000000000000	0.00000000000000	11.51174400000000	0.00000000000000	
13.80660900000000	-52.39294300000000	765.40248999999994	54.90761400000000	0.16181100000000	0.00000000000000	0.08418600000000	-13.31633000000000	104.64448000000000	16.36064300000000	0.39422100000000	0.00000000000000	-0.09411700000000	0.00000000000000	25.29930500000000	0.00000000000000	0.00000000000000	11.75922500000000	0.00000000000000	
13.80827300000000	-52.67882900000000	761.87963000000002	54.56540100000000	0.16113700000000	0.00000000000000	0.08415100000000	-12.73990800000000	110.48737800000001	16.42036000000000	0.39591100000000	0.00000000000000	-0.09456100000000	0.00000000000000	25.13733100000000	0.00000000000000	0.00000000000000	11.96005600000000	0.00000000000000	
13.80995000000000	-52.97473100000000	758.21482500000002	54.19574600000000	0.16047800000000	0.00000000000000	0.08411200000000	-12.07310600000000	116.36489800000000	16.41218000000000	0.39763500000000	0.00000000000000	-0.09498200000000	0.00000000000000	24.97173500000000	0.00000000000000	0.00000000000000	12.12318400000000	0.00000000000000	
13.81161000000000	-53.28040000000000	754.40649599999995	53.79850300000000	0.15983600000000	0.00000000000000	0.08406700000000	-11.33420800000000	122.32285100000000	16.34948100000000	0.39938600000000	0.00000000000000	-0.09538200000000	0.00000000000000	24.80256500000000	0.00000000000000	0.00000000000000	12.25654300000000	0.00000000000000	
13.81327500000000	-53.59551300000000	750.45311300000003	53.37358200000000	0.15921200000000	0.00000000000000	0.08401700000000	-10.53820600000000	128.40028699999999	16.24322500000000	0.40116200000000	0.00000000000000	-0.09576300000000	0.00000000000000	24.62986700000000	0.00000000000000	0.00000000000000	12.36661300000000	0.00000000000000	
13.81493800000000	-53.91968000000000	746.35319000000004	52.92095500000000	0.15860600000000	0.00000000000000	0.08396200000000	-9.69642100000000	134.62774700000000	16.10158500000000	0.40295600000000	0.00000000000000	-0.09612600000000	0.00000000000000	24.45368200000000	0.00000000000000	0.00000000000000	12.45816100000000	0.00000000000000	
13.81661200000000	-54.25243400000000	742.10530000000006	52.44065400000000	0.15802000000000	0.00000000000000	0.08390200000000	-8.81647700000000	141.02642700000001	15.92984400000000	0.40476600000000	0.00000000000000	-0.09647400000000	0.00000000000000	24.27404500000000	0.00000000000000	0.00000000000000	12.53414500000000	0.00000000000000	
13.81827200000000	-54.59323500000000	737.70807200000002	51.93277700000000	0.15745500000000	0.00000000000000	0.08383600000000	-7.90254400000000	147.60816299999999	15.73053500000000	0.40658700000000	0.00000000000000	-0.09680800000000	0.00000000000000	24.09098500000000	0.00000000000000	0.00000000000000	12.59577900000000	0.00000000000000	
13.81994900000000	-54.94146800000000	733.16020000000003	51.39748200000000	0.15691200000000	0.00000000000000	0.08376400000000	-6.95580300000000	154.37608499999999	15.50375600000000	0.40841400000000	0.00000000000000	-0.09712900000000	0.00000000000000	23.90452500000000	0.00000000000000	0.00000000000000	12.64270500000000	0.00000000000000	
13.82160700000000	-55.29644200000000	728.46045100000003	50.83499300000000	0.15639100000000	0.00000000000000	0.08368700000000	-5.97504500000000	161.32576700000001	15.24761200000000	0.41024400000000	0.00000000000000	-0.09743900000000	0.00000000000000	23.71468400000000	0.00000000000000	0.00000000000000	12.67325900000000	0.00000000000000	
13.82327400000000	-55.65738900000000	723.60766699999999	50.24559600000000	0.15589400000000	0.00000000000000	0.08360300000000	-4.95733900000000	168.44669500000001	14.95873200000000	0.41207200000000	0.00000000000000	-0.09773800000000	0.00000000000000	23.52147100000000	0.00000000000000	0.00000000000000	12.68478100000000	0.00000000000000	
13.82495200000000	-56.02346700000000	718.60077400000000	49.62964400000000	0.15542000000000	0.00000000000000	0.08351400000000	-3.89870500000000	175.72388300000000	14.63279300000000	0.41389500000000	0.00000000000000	-0.09802700000000	0.00000000000000	23.32488900000000	0.00000000000000	0.00000000000000	12.67395000000000	0.00000000000000	
13.82660800000000	-56.39375600000000	713.43879100000004	48.98755100000000	0.15497100000000	0.00000000000000	0.08341900000000	-2.79474800000000	183.13950199999999	14.26503000000000	0.41571000000000	0.00000000000000	-0.09830700000000	0.00000000000000	23.12493700000000	0.00000000000000	0.00000000000000	12.63710500000000	0.00000000000000	
13.82827600000000	-56.76726200000000	708.12083700000005	48.31979700000000	0.15454700000000	0.00000000000000	0.08331700000000	-1.64119700000000	190.67437600000000	13.85068400000000	0.41751100000000	0.00000000000000	-0.09857900000000	0.00000000000000	22.92160600000000	0.00000000000000	0.00000000000000	12.57054000000000	0.00000000000000	
13.82995100000000	-57.14291800000000	702.64614200000005	47.62692200000000	0.15414800000000	0.00000000000000	0.08321000000000	-0.43434800000000	198.30929200000000	13.38537500000000	0.41929700000000	0.00000000000000	-0.09884300000000	0.00000000000000	22.71487900000000	0.00000000000000	0.00000000000000	12.47075400000000	0.00000000000000	
13.83161400000000	-57.51958100000000	697.01405399999999	46.90953200000000	0.15377400000000	0.00000000000000	0.08309600000000	0.82862000000000	206.02603600000000	12.86538400000000	0.42106300000000	0.00000000000000	-0.09910100000000	0.00000000000000	22.50473600000000	0.00000000000000	0.00000000000000	12.33464500000000	0.00000000000000	
13.83327400000000	-57.89604100000000	691.22405200000003	46.16829200000000	0.15342700000000	0.00000000000000	0.08297700000000	2.14944400000000	213.80814899999999	12.28783800000000	0.42280500000000	0.00000000000000	-0.09935200000000	0.00000000000000	22.29114900000000	0.00000000000000	0.00000000000000	12.15964500000000	0.00000000000000	
13.83495200000000	-58.27101600000000	685.27575700000000	45.40392500000000	0.15310600000000	0.00000000000000	0.08285100000000	3.52869100000000	221.64140100000000	11.65081100000000	0.42452100000000	0.00000000000000	-0.09959800000000	0.00000000000000	22.07408600000000	0.00000000000000	0.00000000000000	11.94379900000000	0.00000000000000	
13.83661400000000	-58.64315900000000	679.16893900000002	44.61721700000000	0.15281000000000	0.00000000000000	0.08271900000000	4.96576700000000	229.51400300000000	10.95334100000000	0.42620700000000	0.00000000000000	-0.09983800000000	0.00000000000000	21.85351000000000	0.00000000000000	0.00000000000000	11.68579800000000	0.00000000000000	
